<?xml version="1.0" encoding="UTF-8"?>
<svg id="Layer_2" data-name="Layer 2" xmlns="http://www.w3.org/2000/svg" xmlns:xlink="http://www.w3.org/1999/xlink" viewBox="0 0 1370.86 228.81">
  <defs>
    <style>
      .cls-1 {
        fill: url(#linear-gradient);
      }

      .cls-2 {
        fill: #fff;
      }
    </style>
    <linearGradient id="linear-gradient" x1="175.51" y1="110.78" x2="382.53" y2="110.78" gradientUnits="userSpaceOnUse">
      <stop offset="0" stop-color="#fff" stop-opacity="0"/>
      <stop offset="1" stop-color="#fff"/>
    </linearGradient>
  </defs>
  <g id="_Слой_1" data-name="Слой 1">
    <g>
      <g>
        <path class="cls-2" d="M207.65,158.96h-32.13c-3.72-36.11-34.29-64.27-71.37-64.27s-67.62,28.15-71.34,64.27H.63c1.79-25.7,12.94-48.76,30.13-65.94,18.78-18.82,44.71-30.42,73.38-30.42s54.6,11.6,73.42,30.42c17.15,17.18,28.3,40.24,30.09,65.94Z"/>
        <path class="cls-1" d="M382.53,158.96h-32.13c-3.72-36.11-34.29-64.27-71.37-64.27s-67.62,28.15-71.34,64.27h-32.17c1.79-25.7,12.94-48.76,30.13-65.94,18.78-18.82,44.71-30.42,73.38-30.42s54.6,11.6,73.42,30.42c17.15,17.18,28.3,40.24,30.09,65.94Z"/>
        <rect class="cls-2" width="383.16" height="32.1"/>
      </g>
      <g>
        <g>
          <path class="cls-2" d="M581.08,158.96h-37.31v-88.42c0-11.91-2.88-20.85-8.62-26.8-5.75-5.96-13.33-8.94-22.74-8.94s-17.24,2.93-22.88,8.78c-5.65,5.86-8.47,14.85-8.47,26.96v88.42h-37.31v-88.42c0-23.2,5.96-40.76,17.88-52.67,11.91-11.91,27.59-17.87,47.03-17.87,23.83,0,41.59,9.09,53.31,27.28h.63c11.29-18.19,29.05-27.28,53.3-27.28,19.44,0,35.12,5.96,47.03,17.87,11.91,11.91,17.87,29.47,17.87,52.67v88.42h-37.31v-88.42c0-12.12-2.82-21.11-8.46-26.96-5.64-5.85-13.28-8.78-22.89-8.78s-16.93,2.98-22.58,8.94c-5.65,5.96-8.46,14.89-8.46,26.8v88.42Z"/>
          <path class="cls-2" d="M842.41,23.04c15.56,15.36,23.35,34.86,23.35,58.48s-7.79,43.11-23.35,58.47c-15.57,15.36-35.59,23.04-60.04,23.04s-44.48-7.68-60.04-23.04c-15.57-15.36-23.36-34.85-23.36-58.47s7.79-43.11,23.36-58.48c15.56-15.36,35.58-23.04,60.04-23.04s44.47,7.68,60.04,23.04ZM749.29,115.22c8.47,8.68,19.49,13.02,33.08,13.02s24.55-4.34,32.92-13.02c8.36-8.67,12.54-19.9,12.54-33.7s-4.18-25.03-12.54-33.71c-8.37-8.67-19.33-13.02-32.92-13.02s-24.61,4.34-33.08,13.02c-8.46,8.67-12.7,19.9-12.7,33.71s4.24,25.03,12.7,33.7Z"/>
          <path class="cls-2" d="M1004.66,48.6h-37c-.42-4.81-2.77-8.67-7.05-11.6-4.29-2.92-9.98-4.39-17.09-4.39-7.95,0-14.06,1.56-18.34,4.67-4.29,3.11-6.43,7.29-6.43,12.5,0,4.02,2.23,7.13,6.67,9.34,4.45,2.22,9.99,3.83,16.64,4.85,6.63,1.03,13.79,2.13,21.47,3.31,7.67,1.18,14.84,3.06,21.49,5.64,6.65,2.58,12.16,7.2,16.53,13.85,4.37,6.67,6.55,15.15,6.55,25.46,0,14.85-5.96,27.02-17.87,36.53-11.91,9.51-27.59,14.26-47.03,14.26s-35.07-4.65-46.87-13.95c-11.81-9.3-17.93-21.27-18.35-35.9h37.63c.41,11.5,9.4,17.24,26.96,17.24,18.6,0,27.91-6.05,27.91-18.16,0-4.17-2.2-7.36-6.58-9.55-4.39-2.2-9.91-3.77-16.55-4.75-6.63-.97-13.79-2.03-21.47-3.15s-14.86-2.94-21.55-5.45c-6.69-2.51-12.22-7.06-16.61-13.64-4.39-6.58-6.58-14.99-6.58-25.23,0-14.84,5.64-26.97,16.93-36.37,11.29-9.41,26.23-14.11,44.84-14.11s33.18,4.6,44.37,13.79c11.18,9.2,16.98,20.8,17.4,34.8Z"/>
          <path class="cls-2" d="M1188.62,82.78v76.19h-34.17v-28.84h-.62c-4.39,10.03-11.4,18.03-21.01,23.99-9.62,5.96-20.9,8.93-33.86,8.93-20.27,0-38.09-7.15-53.46-21.47-15.36-14.32-23.04-34.33-23.04-60.04,0-23.62,7.79-43.11,23.36-58.48,15.57-15.36,35.59-23.04,60.04-23.04s44.62,7.58,59.88,22.73c15.26,15.16,22.89,35.17,22.89,60.04ZM1072.77,115.22c8.46,8.68,19.49,13.02,33.08,13.02s24.56-4.34,32.92-13.02c8.36-8.67,12.54-19.9,12.54-33.7s-4.18-25.03-12.54-33.71c-8.36-8.67-19.33-13.02-32.92-13.02s-24.61,4.34-33.08,13.02c-8.46,8.67-12.7,19.9-12.7,33.71s4.24,25.03,12.7,33.7Z"/>
          <path class="cls-2" d="M1370.86,94.69h-126.98v.63c2.51,10.45,7.63,18.71,15.36,24.77,7.72,6.06,17.35,9.09,28.84,9.09,16.72,0,28.94-4.91,36.68-14.73h39.82c-5.85,14.84-15.52,26.65-29,35.43-13.48,8.78-29.32,13.17-47.5,13.17-24.46,0-44.47-7.68-60.04-23.04-15.57-15.36-23.36-34.85-23.36-58.47s7.79-43.11,23.36-58.48c15.57-15.36,35.59-23.04,60.04-23.04s44.1,7.68,59.57,23.04c15.46,15.36,23.2,34.86,23.2,58.48v13.17ZM1288.09,33.86c-10.87,0-20.07,2.67-27.59,8-7.53,5.33-12.75,12.8-15.68,22.42v.63h86.53v-.63c-2.92-9.41-8.2-16.83-15.83-22.27-7.63-5.43-16.78-8.15-27.44-8.15Z"/>
        </g>
        <g>
          <path class="cls-2" d="M782.56,228.19l-11.53-40.85h7.96l7.36,30.02h.38l7.86-30.02h7.24l7.88,30.04h.35l7.36-30.04h7.96l-11.53,40.85h-7.3l-8.17-28.67h-.32l-8.19,28.67h-7.3Z"/>
          <path class="cls-2" d="M841.75,228.19v-40.85h26.58v6.21h-19.17v11.09h17.79v6.21h-17.79v11.15h19.33v6.21h-26.73Z"/>
          <path class="cls-2" d="M887.12,228.19v-40.85h15.64c2.96,0,5.41.46,7.37,1.38,1.96.93,3.43,2.19,4.41,3.78.98,1.6,1.46,3.41,1.46,5.43,0,1.66-.32,3.08-.96,4.25-.64,1.18-1.49,2.13-2.58,2.86-1.07.73-2.28,1.26-3.61,1.57v.4c1.45.08,2.84.52,4.18,1.33,1.34.8,2.43,1.94,3.28,3.4.85,1.46,1.28,3.23,1.28,5.3s-.51,4.01-1.54,5.69c-1.02,1.68-2.57,3.01-4.63,3.98-2.06.98-4.65,1.46-7.78,1.46h-16.54ZM894.52,204.71h7.31c1.28,0,2.43-.23,3.45-.71,1.02-.47,1.83-1.15,2.43-2.01.59-.87.89-1.91.89-3.1,0-1.58-.56-2.89-1.67-3.91-1.11-1.02-2.76-1.54-4.94-1.54h-7.47v11.27ZM894.52,222.01h7.95c2.69,0,4.63-.52,5.81-1.55,1.19-1.03,1.79-2.36,1.79-3.98,0-1.21-.3-2.3-.9-3.28-.6-.98-1.44-1.75-2.55-2.32-1.11-.57-2.43-.85-3.95-.85h-8.16v11.97Z"/>
          <path class="cls-2" d="M982.66,198.56c-.19-1.74-.97-3.1-2.35-4.07-1.37-.98-3.16-1.46-5.36-1.46-1.54,0-2.86.23-3.97.69-1.1.47-1.94,1.1-2.53,1.9-.59.8-.89,1.71-.9,2.74,0,.85.2,1.58.59,2.21.4.62.93,1.15,1.61,1.58.68.43,1.43.79,2.26,1.08s1.66.54,2.49.74l3.83.96c1.54.35,3.02.84,4.46,1.45,1.43.62,2.71,1.38,3.85,2.32,1.14.93,2.04,2.05,2.71,3.37.66,1.32,1,2.86,1,4.63,0,2.4-.61,4.5-1.84,6.31-1.22,1.82-2.99,3.23-5.29,4.25-2.31,1.02-5.1,1.53-8.38,1.53s-5.93-.49-8.27-1.48c-2.33-.99-4.16-2.43-5.46-4.31-1.32-1.89-2.02-4.19-2.13-6.91h7.28c.1,1.43.54,2.61,1.32,3.55.77.94,1.77,1.65,3.02,2.12,1.24.46,2.63.69,4.18.69s3.02-.24,4.24-.73c1.22-.49,2.17-1.16,2.86-2.04.69-.87,1.05-1.89,1.06-3.06-.01-1.07-.33-1.94-.94-2.65-.61-.7-1.47-1.29-2.57-1.76s-2.38-.9-3.84-1.27l-4.65-1.19c-3.36-.87-6.02-2.18-7.97-3.94-1.94-1.76-2.92-4.1-2.92-7.03,0-2.41.65-4.52,1.96-6.33,1.31-1.8,3.1-3.21,5.35-4.22,2.27-1.01,4.83-1.51,7.68-1.51s5.45.5,7.63,1.51c2.19,1.01,3.91,2.4,5.16,4.17,1.26,1.77,1.9,3.82,1.94,6.11h-7.12Z"/>
          <path class="cls-2" d="M1044.66,207.76c0,4.4-.82,8.17-2.46,11.3-1.65,3.13-3.88,5.53-6.7,7.19-2.83,1.66-6.03,2.49-9.61,2.49s-6.78-.84-9.61-2.51c-2.83-1.67-5.06-4.07-6.7-7.2-1.64-3.13-2.46-6.89-2.46-11.28s.82-8.17,2.46-11.3c1.65-3.13,3.88-5.53,6.7-7.19,2.83-1.66,6.03-2.49,9.61-2.49s6.78.83,9.61,2.49c2.83,1.66,5.06,4.06,6.7,7.19,1.64,3.13,2.46,6.9,2.46,11.3ZM1037.22,207.76c0-3.1-.48-5.72-1.44-7.85s-2.3-3.75-4-4.85c-1.71-1.1-3.67-1.65-5.89-1.65s-4.18.55-5.89,1.65c-1.69,1.1-3.04,2.71-4,4.85-.96,2.13-1.44,4.75-1.44,7.85s.48,5.72,1.44,7.85c.96,2.13,2.3,3.75,4,4.85,1.71,1.1,3.67,1.65,5.89,1.65s4.18-.55,5.89-1.65c1.7-1.1,3.04-2.71,4-4.85.96-2.13,1.44-4.75,1.44-7.85Z"/>
          <path class="cls-2" d="M1062.91,228.19v-40.85h7.41v34.65h17.99v6.21h-25.4Z"/>
          <path class="cls-2" d="M1131.7,187.33h7.4v26.69c0,2.93-.69,5.5-2.07,7.72-1.37,2.22-3.31,3.96-5.8,5.2-2.49,1.24-5.39,1.87-8.72,1.87s-6.25-.62-8.73-1.87c-2.49-1.24-4.42-2.97-5.78-5.2-1.37-2.22-2.06-4.79-2.06-7.72v-26.69h7.41v26.07c0,1.7.37,3.22,1.13,4.55.75,1.33,1.81,2.37,3.18,3.13,1.37.75,2.99,1.12,4.86,1.12s3.5-.37,4.88-1.12c1.38-.76,2.44-1.79,3.18-3.13.74-1.33,1.12-2.85,1.12-4.55v-26.07Z"/>
          <path class="cls-2" d="M1156.6,193.54v-6.21h32.6v6.21h-12.63v34.65h-7.34v-34.65h-12.63Z"/>
          <path class="cls-2" d="M1214.1,187.33v40.85h-7.41v-40.85h7.41Z"/>
          <path class="cls-2" d="M1269.87,207.76c0,4.4-.82,8.17-2.46,11.3s-3.88,5.53-6.7,7.19c-2.83,1.66-6.02,2.49-9.61,2.49s-6.78-.84-9.61-2.51c-2.82-1.67-5.06-4.07-6.7-7.2-1.64-3.13-2.46-6.89-2.46-11.28s.82-8.17,2.46-11.3c1.64-3.13,3.88-5.53,6.7-7.19,2.83-1.66,6.03-2.49,9.61-2.49s6.78.83,9.61,2.49c2.83,1.66,5.06,4.06,6.7,7.19,1.65,3.13,2.46,6.9,2.46,11.3ZM1262.44,207.76c0-3.1-.49-5.72-1.45-7.85-.96-2.13-2.29-3.75-4-4.85s-3.66-1.65-5.89-1.65-4.18.55-5.88,1.65c-1.7,1.1-3.04,2.71-4,4.85-.97,2.13-1.44,4.75-1.44,7.85s.48,5.72,1.44,7.85c.96,2.13,2.3,3.75,4,4.85,1.7,1.1,3.66,1.65,5.88,1.65s4.18-.55,5.89-1.65c1.71-1.1,3.04-2.71,4-4.85.96-2.13,1.45-4.75,1.45-7.85Z"/>
          <path class="cls-2" d="M1321.71,187.33v40.85h-6.58l-19.25-27.83h-.34v27.83h-7.4v-40.85h6.62l19.23,27.84h.36v-27.84h7.36Z"/>
          <path class="cls-2" d="M1363.18,198.56c-.18-1.74-.96-3.1-2.34-4.07-1.38-.98-3.16-1.46-5.36-1.46-1.54,0-2.87.23-3.97.69-1.11.47-1.95,1.1-2.54,1.9s-.88,1.71-.9,2.74c0,.85.2,1.58.59,2.21.4.62.93,1.15,1.6,1.58.68.43,1.43.79,2.26,1.08.83.29,1.66.54,2.5.74l3.83.96c1.54.35,3.03.84,4.46,1.45,1.43.62,2.71,1.38,3.85,2.32,1.14.93,2.04,2.05,2.7,3.37.67,1.32,1,2.86,1,4.63,0,2.4-.61,4.5-1.83,6.31-1.23,1.82-2.99,3.23-5.3,4.25-2.3,1.02-5.1,1.53-8.37,1.53s-5.93-.49-8.27-1.48c-2.33-.99-4.15-2.43-5.46-4.31-1.31-1.89-2.02-4.19-2.12-6.91h7.28c.11,1.43.55,2.61,1.32,3.55s1.78,1.65,3.02,2.12c1.24.46,2.63.69,4.18.69s3.02-.24,4.24-.73c1.21-.49,2.17-1.16,2.86-2.04.69-.87,1.05-1.89,1.06-3.06-.01-1.07-.33-1.94-.94-2.65-.61-.7-1.46-1.29-2.56-1.76-1.1-.47-2.38-.9-3.84-1.27l-4.65-1.19c-3.36-.87-6.02-2.18-7.97-3.94-1.95-1.76-2.93-4.1-2.93-7.03,0-2.41.66-4.52,1.96-6.33,1.32-1.8,3.1-3.21,5.36-4.22,2.26-1.01,4.82-1.51,7.68-1.51s5.44.5,7.63,1.51c2.19,1.01,3.91,2.4,5.16,4.17,1.25,1.77,1.9,3.82,1.93,6.11h-7.12Z"/>
        </g>
      </g>
    </g>
  </g>
</svg>